<svg width="26" height="27" viewBox="0 0 26 27" fill="none" xmlns="http://www.w3.org/2000/svg">
<path fill-rule="evenodd" clip-rule="evenodd" d="M23.3337 4.94405C21.329 2.24723 18.1185 0.5 14.5 0.5C10.9988 0.5 7.87968 2.13574 5.86511 4.68469C5.45866 4.92691 5.06778 5.19245 4.69432 5.47945C4.47536 5.64771 4.43426 5.96161 4.60252 6.18057C4.6534 6.24678 4.71759 6.29672 4.78845 6.32954C3.96612 7.87088 3.5 9.63101 3.5 11.5C3.5 17.5751 8.42487 22.5 14.5 22.5C17.4151 22.5 20.0653 21.3661 22.0337 19.5152C21.6824 20.2947 21.2428 21.0259 20.7276 21.6964C20.5594 21.9153 20.6005 22.2292 20.8194 22.3975C21.0384 22.5657 21.3523 22.5246 21.5206 22.3057C22.155 21.4801 22.6846 20.5694 23.0892 19.5936C23.195 19.3385 23.074 19.046 22.8189 18.9402C22.7594 18.9155 22.6978 18.9032 22.6371 18.902C24.4157 16.9479 25.5 14.3506 25.5 11.5C25.5 10.1757 25.266 8.90604 24.837 7.73015L17.0966 16.0235C16.819 16.3209 16.4326 16.4928 16.0259 16.4998C15.6191 16.5068 15.227 16.3483 14.9393 16.0607L10.9393 12.0607C10.3536 11.4749 10.3536 10.5251 10.9393 9.93934C11.5251 9.35355 12.4749 9.35355 13.0607 9.93934L15.9628 12.8415L23.3337 4.94405ZM3.18057 7.60252C3.39953 7.77078 3.44063 8.08469 3.27237 8.30365C2.69057 9.06073 2.20522 9.89547 1.83449 10.7895C1.72871 11.0445 1.43618 11.1656 1.1811 11.0598C0.926019 10.954 0.804985 10.6615 0.910763 10.4064C1.31543 9.43057 1.84502 8.5199 2.47945 7.69432C2.64771 7.47536 2.96161 7.43426 3.18057 7.60252ZM0.661874 13.0022C0.935697 13.0379 1.12872 13.2888 1.093 13.5627C1.03167 14.0329 1 14.5126 1 15C1 15.4874 1.03167 15.9671 1.093 16.4373C1.12872 16.7112 0.935697 16.9621 0.661874 16.9978C0.388052 17.0335 0.137119 16.8405 0.101402 16.5667C0.0344881 16.0537 0 15.5308 0 15C0 14.4692 0.0344881 13.9463 0.101401 13.4333C0.137119 13.1595 0.388051 12.9665 0.661874 13.0022ZM1.1811 18.9402C1.43618 18.8344 1.72871 18.9555 1.83449 19.2105C2.20522 20.1045 2.69058 20.9393 3.27237 21.6964C3.44063 21.9153 3.39953 22.2292 3.18057 22.3975C2.96161 22.5657 2.64771 22.5246 2.47945 22.3057C1.84502 21.4801 1.31543 20.5694 0.910763 19.5936C0.804986 19.3385 0.926019 19.046 1.1811 18.9402ZM19.3975 23.8194C19.5657 24.0384 19.5246 24.3523 19.3057 24.5206C18.4801 25.155 17.5694 25.6846 16.5936 26.0892C16.3385 26.195 16.046 26.074 15.9402 25.8189C15.8344 25.5638 15.9555 25.2713 16.2105 25.1655C17.1045 24.7948 17.9393 24.3094 18.6964 23.7276C18.9153 23.5594 19.2292 23.6005 19.3975 23.8194ZM4.60252 23.8194C4.77078 23.6005 5.08469 23.5594 5.30365 23.7276C6.06073 24.3094 6.89547 24.7948 7.78947 25.1655C8.04455 25.2713 8.16558 25.5638 8.0598 25.8189C7.95403 26.074 7.66149 26.195 7.40641 26.0892C6.43057 25.6846 5.5199 25.155 4.69432 24.5206C4.47536 24.3523 4.43426 24.0384 4.60252 23.8194ZM10.0022 26.3381C10.0379 26.0643 10.2888 25.8713 10.5627 25.907C11.0329 25.9683 11.5126 26 12 26C12.4874 26 12.9671 25.9683 13.4373 25.907C13.7112 25.8713 13.9621 26.0643 13.9978 26.3381C14.0335 26.6119 13.8405 26.8629 13.5667 26.8986C13.0537 26.9655 12.5308 27 12 27C11.4692 27 10.9463 26.9655 10.4333 26.8986C10.1595 26.8629 9.96648 26.6119 10.0022 26.3381Z" fill="white"/>
</svg>
